<svg width="24" height="24" fill="none" xmlns="http://www.w3.org/2000/svg"><path d="M12.003 0h-.006C5.38 0 0 5.382 0 12c0 2.625.846 5.058 2.284 7.034L.79 23.49l4.613-1.474a11.896 11.896 0 006.6 1.984C18.619 24 24 18.616 24 12c0-6.617-5.38-12-11.997-12z" fill="#4CAF50"/><path d="M18.985 16.945c-.289.818-1.438 1.496-2.354 1.694-.628.134-1.447.24-4.204-.903-3.526-1.461-5.797-5.045-5.974-5.277-.17-.232-1.425-1.897-1.425-3.62 0-1.721.875-2.56 1.227-2.92.29-.295.768-.43 1.227-.43.148 0 .282.007.402.013.352.015.53.036.762.593.29.697.994 2.419 1.079 2.596.085.177.17.417.05.65-.112.24-.211.346-.388.55-.177.204-.345.36-.522.579-.162.19-.345.394-.141.747.204.345.909 1.495 1.947 2.42 1.34 1.192 2.426 1.573 2.814 1.735.29.12.635.091.846-.133.269-.29.6-.77.938-1.243.24-.338.543-.38.86-.26.324.112 2.039.96 2.391 1.135.353.177.585.261.671.41.084.148.084.845-.206 1.664z" fill="#FAFAFA"/></svg>