<svg width="60" height="60" fill="none" xmlns="http://www.w3.org/2000/svg"><path d="M55.389 7H3.61A1.61 1.61 0 002 8.611v12.891c0 .89.721 1.611 1.611 1.611H55.39a1.61 1.61 0 001.611-1.611V8.612A1.612 1.612 0 0055.389 7zm-1.612 12.89H5.223v-9.667h48.554v9.668z" fill="#000"/><path d="M29.5 16.668a1.611 1.611 0 100-3.223 1.611 1.611 0 000 3.223zm6.445 0a1.611 1.611 0 100-3.223 1.611 1.611 0 000 3.223zm6.445 0a1.611 1.611 0 100-3.223 1.611 1.611 0 000 3.223zm-19.335 0a1.611 1.611 0 100-3.223 1.611 1.611 0 000 3.223zm-6.445 0a1.611 1.611 0 100-3.223 1.611 1.611 0 000 3.223zm22.924 9.668c-2.486 0-4.899.71-6.979 2.05a12.922 12.922 0 00-4.187 4.395H9.412c-.517 0-1.003.249-1.306.668l-3.491 4.834a1.61 1.61 0 000 1.887l3.49 4.834c.304.42.79.668 1.307.668h3.249c.537 0 1.039-.268 1.338-.714l.922-1.376.923 1.376c.3.446.801.714 1.338.714h4.072c.537 0 1.04-.268 1.339-.714l.922-1.376.923 1.376c.299.446.8.714 1.338.714h2.592a12.92 12.92 0 004.187 4.394 12.846 12.846 0 006.979 2.051c7.108 0 12.89-5.782 12.89-12.89 0-7.108-5.782-12.891-12.89-12.891zm0 22.559a9.72 9.72 0 01-8.738-5.526 1.611 1.611 0 00-1.456-.92h-2.704l-1.783-2.657a1.612 1.612 0 00-2.676 0l-1.782 2.657h-2.353l-1.782-2.657a1.611 1.611 0 00-2.677 0l-1.782 2.657h-1.565l-2.327-3.222 2.327-3.223h19.105a1.61 1.61 0 001.455-.92 9.72 9.72 0 018.738-5.525c5.33 0 9.668 4.337 9.668 9.668 0 5.33-4.337 9.668-9.668 9.668z" fill="#000"/><path d="M42.713 36.004a1.61 1.61 0 00-1.611 1.611v3.223a1.611 1.611 0 103.222 0v-3.223a1.61 1.61 0 00-1.611-1.611z" fill="#000"/></svg>