<svg width="288" height="77" fill="none" xmlns="http://www.w3.org/2000/svg"><path d="M148.524 35.958c1.2.59 2.143 1.412 2.828 2.468.686 1.056 1.029 2.26 1.029 3.61 0 2.063-.723 3.795-2.167 5.195-1.445 1.4-3.208 2.1-5.289 2.1h-11.092V23.543h10.284c2.032 0 3.734.675 5.105 2.026 1.396 1.35 2.094 3.02 2.094 5.01 0 2.309-.931 4.102-2.792 5.379zm-4.407-9.21h-6.869v7.884h6.869c1.077 0 1.983-.381 2.718-1.142.734-.762 1.101-1.695 1.101-2.8 0-1.081-.379-2.002-1.138-2.763-.735-.786-1.628-1.18-2.681-1.18zm-6.869 19.378h7.677c1.151 0 2.118-.406 2.901-1.216.784-.81 1.176-1.805 1.176-2.984 0-1.154-.404-2.137-1.212-2.947-.76-.81-1.714-1.216-2.865-1.216h-7.677v8.363zm29.943-22.583v22.546h11.092v3.242h-14.508V23.543h3.416zm43.15 25.787h-3.636l-2.094-5.783h-11.57l-2.093 5.784h-3.636l9.586-25.788h3.857l9.586 25.788zm-11.533-21.698l-4.591 12.71h9.219l-4.628-12.71zm28.89 8.436l11.717 13.263h-4.187l-11.092-12.379v12.379h-3.416V23.543h3.416v11.641l10.724-11.641h4.188l-11.35 12.525zm22.104 13.262V23.544h3.415V49.33h-3.415zm14.183-25.787h18.548v3.242h-7.603V49.33h-3.379V26.785h-7.566v-3.242zM197.016 2.768V.116h.831v6.25h-.831V3.554h-3.072v2.812h-.841V.116h.841v2.652h3.072zm3.658.473c0-.905.316-1.67.948-2.295.633-.63 1.407-.946 2.322-.946.916 0 1.69.315 2.323.946.638.626.957 1.39.957 2.295 0 .9-.319 1.664-.957 2.295-.633.631-1.407.947-2.323.947-.915 0-1.689-.316-2.322-.947a3.142 3.142 0 01-.948-2.295zm5.71 0c0-.69-.235-1.268-.705-1.732-.458-.47-1.036-.705-1.735-.705-.692 0-1.274.235-1.743.705-.464.47-.696 1.048-.696 1.732 0 .679.232 1.256.696 1.733.469.464 1.051.696 1.743.696.699 0 1.277-.232 1.735-.696.47-.477.705-1.054.705-1.733zm8.627-3.125h.949v6.25h-.831V1.482l-2.069 3.402h-.109l-2.069-3.393v4.875h-.84V.116h.948l2.015 3.304 2.006-3.304zm4.949 3.482v1.983h2.937v.785h-3.777V.116h3.731v.786h-2.891v1.92h2.665v.776h-2.665zM112.5 2.214h76.347v.948H112.5v-.948zm114.653 0H288v.948h-60.847v-.948zM112.5 73.68h76.347v.948H112.5v-.948zm114.653 0H288v.948h-60.847v-.948zm-30.897-2.758l1.728-.599h.751v6.555h-.864V71.26l-1.399.412-.216-.749zm9.883 1.48c0 .512-.135.952-.404 1.32h.009l-2.122 3.156h-.986l1.559-2.294a9.875 9.875 0 01-.319.019c-.664 0-1.209-.203-1.634-.61-.42-.411-.629-.942-.629-1.591 0-.656.209-1.183.629-1.583.419-.412.964-.618 1.634-.618.657 0 1.198.206 1.624.618.426.406.639.934.639 1.583zm-2.263-1.367c-.414 0-.752.125-1.015.374-.256.25-.385.58-.385.993 0 .412.129.746.385 1.002.263.25.601.374 1.015.374.413 0 .748-.124 1.004-.374.263-.256.395-.59.395-1.002 0-.412-.129-.743-.385-.993-.257-.25-.595-.374-1.014-.374zm6.563 1.555c.658 0 1.199.205 1.625.617.426.406.638.934.638 1.583 0 .65-.212 1.18-.638 1.592-.426.412-.967.618-1.625.618-.669 0-1.214-.206-1.633-.618-.42-.412-.63-.943-.63-1.592 0-.512.132-.949.395-1.311l2.113-3.156h.995l-1.549 2.285a12 12 0 01.309-.019zm0 .833c-.419 0-.757.124-1.014.374-.256.25-.385.58-.385.993 0 .412.129.746.385 1.002.263.25.601.374 1.014.374.414 0 .748-.124 1.005-.374.263-.256.394-.59.394-1.002 0-.412-.131-.743-.394-.993-.257-.25-.591-.374-1.005-.374zm8.708-2.333l-1.427 1.92c.513.094.926.313 1.239.656.313.344.47.768.47 1.274 0 .643-.22 1.145-.658 1.508-.444.368-.976.552-1.596.552-.513 0-.961-.115-1.343-.347a1.92 1.92 0 01-.817-.983l.733-.43c.194.605.67.908 1.427.908.413 0 .745-.106.995-.319.257-.218.385-.515.385-.89 0-.374-.128-.67-.385-.889-.25-.218-.582-.328-.995-.328h-.225l-.348-.533 1.521-2.051h-2.92v-.815h3.944v.768z" fill="#fff"/><mask id="a" maskUnits="userSpaceOnUse" x="0" y="2" width="119" height="73"><path fill="#C4C4C4" d="M0 2h118.625v73H0z"/></mask><g mask="url(#a)"><path fill="#EC174F" d="M-18.25-10.775h177.025V118.8H-18.25z"/></g><path d="M33.5 14l8 4.5-8 4.5v-9zM55 26l-4.5 8-4.5-8h9zm22 0l-4.5 8-4.5-8h9zm-6 10l-4.5 8-4.5-8h9zm-14 9l4.5-8 4.5 8h-9zm5-10l4.5-8 4.5 8h-9zm-10 0l4.5-8 4.5 8h-9zm9 1l-4.5 8-4.5-8h9zM33.5 25l8 4.5-8 4.5v-9zm0 12l8 4.5-8 4.5v-9zm8 3l-8-4.5 8-4.5v9zM83 14l8 4.5-8 4.5v-9zm0 11l8 4.5-8 4.5v-9zm0 12l8 4.5-8 4.5v-9zm8 3l-8-4.5 8-4.5v9zM32.33 59.964c0 .42-.074.788-.223 1.104a1.67 1.67 0 01-.638.733 1.755 1.755 0 01-.95.258c-.353 0-.668-.085-.946-.255a1.695 1.695 0 01-.644-.727 2.51 2.51 0 01-.232-1.09v-.21c0-.42.076-.79.226-1.108.152-.32.366-.566.642-.735a1.76 1.76 0 01.949-.258c.355 0 .67.086.946.258.277.17.491.415.642.735.152.318.228.687.228 1.104v.19zm-.89-.194c0-.447-.08-.787-.24-1.019a.783.783 0 00-.686-.349.782.782 0 00-.683.346c-.16.229-.241.565-.243 1.008v.208c0 .435.08.773.24 1.014.16.24.39.36.692.36a.775.775 0 00.68-.346c.157-.232.238-.57.24-1.014v-.208zm5 2.23h-.878v-1.828h-1.714V62h-.88v-4.266h.88v1.729h1.714v-1.729h.878V62zm4.292-4.266V62h-.881v-3.554h-1.137l-.07 1.506c-.03.508-.094.908-.194 1.201-.1.291-.245.505-.436.642-.192.135-.454.203-.786.205H37v-.706l.147-.015c.22-.029.377-.156.471-.38.096-.227.156-.63.182-1.208l.073-1.957h2.86zm3.228 3.387h-1.54l-.293.879h-.935l1.588-4.266h.815L45.19 62h-.934l-.296-.879zm-1.303-.712h1.067l-.536-1.596-.53 1.596zm5.491-2.675h.881V62h-.882v-2.833L46.44 62h-.88v-4.266h.88v2.84l1.708-2.84zm.17-1.122c0 .26-.094.47-.282.63-.185.16-.43.24-.732.24-.303 0-.548-.079-.736-.237a.79.79 0 01-.278-.633h.6c0 .123.037.22.109.287a.44.44 0 00.305.1.425.425 0 00.298-.1.376.376 0 00.109-.287h.606zM53.263 62h-.88v-1.828H50.67V62h-.879v-4.266h.879v1.729h1.714v-1.729h.879V62zm2.361-1.485h-1.65v-.683h1.65v.683zm2.127-.258h-.507V62h-.879v-4.266h.88v1.708h.4l1.043-1.708h1.073l-1.316 2.019L59.898 62H58.85l-1.099-1.743zm5.045-2.523h.882V62h-.882v-2.833L61.088 62h-.879v-4.266h.879v2.84l1.708-2.84zM67.911 62h-.879v-1.828h-1.714V62h-.879v-4.266h.88v1.729h1.713v-1.729h.88V62zm4.275-2.036c0 .42-.075.788-.223 1.104-.148.317-.361.56-.639.733a1.755 1.755 0 01-.949.258c-.353 0-.669-.085-.946-.255a1.695 1.695 0 01-.645-.727 2.51 2.51 0 01-.231-1.09v-.21c0-.42.075-.79.225-1.108.153-.32.366-.566.642-.735.277-.172.594-.258.95-.258.355 0 .67.086.945.258.278.17.492.415.642.735.152.318.229.687.229 1.104v.19zm-.891-.194c0-.447-.08-.787-.24-1.019a.783.783 0 00-.686-.349.782.782 0 00-.683.346c-.16.229-.24.565-.243 1.008v.208c0 .435.08.773.24 1.014.16.24.391.36.692.36a.775.775 0 00.68-.346c.158-.232.238-.57.24-1.014v-.208zm4.488-1.324h-1.306V62h-.88v-3.554H72.31v-.712h3.474v.712zm3.07 1.705h-1.687v1.143h1.98V62h-2.859v-4.266h2.854v.712h-1.975v1.017h1.688v.688zm3.217.97h-1.54l-.294.879h-.934l1.588-4.266h.814L83.301 62h-.935l-.296-.879zm-1.303-.712h1.066l-.536-1.596-.53 1.596zm5.792-1.963h-1.307V62h-.879v-3.554h-1.289v-.712h3.475v.712zm1.382 2.051V62h-.879v-4.266h1.665c.32 0 .601.059.843.176.245.117.432.284.563.501.13.215.196.46.196.736 0 .418-.143.748-.43.99-.286.24-.681.36-1.187.36h-.77zm0-.712h.786c.232 0 .409-.054.53-.164.123-.11.184-.266.184-.469a.703.703 0 00-.184-.507c-.123-.128-.293-.195-.51-.199h-.806v1.34z" fill="#fff"/></svg>