<svg width="60" height="60" fill="none" xmlns="http://www.w3.org/2000/svg"><g clip-path="url(#clip0)"><path d="M56.782 24.566L47.185 8.212a1.582 1.582 0 00-2.156-.57l-5.752 3.321-5.18-1.905a5.785 5.785 0 00-4.904.42l-7.867 4.543-6.975-4.027a1.582 1.582 0 00-2.185.622L3.188 27.354a1.582 1.582 0 00.603 2.118l3.563 2.057-1.787 3.094a4.751 4.751 0 001.737 6.483 4.727 4.727 0 003.347.532 4.726 4.726 0 002.133 2.632 4.727 4.727 0 003.347.532 4.726 4.726 0 002.134 2.632 4.726 4.726 0 003.346.532 4.726 4.726 0 002.134 2.632 4.751 4.751 0 006.483-1.737l.205-.354 5.937 3.428a4.751 4.751 0 006.483-1.737 4.72 4.72 0 00.584-1.683 4.754 4.754 0 005.32-2.215 4.716 4.716 0 00.624-2.062 4.75 4.75 0 004.367-2.364 4.75 4.75 0 00-.136-4.964 4.715 4.715 0 001.473-1.571 4.752 4.752 0 00-1.553-6.371l2.891-2.38c.6-.494.753-1.351.36-2.022zM30.776 12.218a2.63 2.63 0 012.228-.19l5.877 2.16c.44.163.93.12 1.337-.114l5.033-2.906 8.12 13.835-2.76 2.272-19.002-10.97a1.582 1.582 0 00-1.582 0l-8.746 5.048c-.727.44-1.75.167-2.16-.579-.441-.727-.167-1.75.578-2.16l11.076-6.396zM8.886 38.366a1.584 1.584 0 01-.579-2.161l2.637-4.567a1.584 1.584 0 012.161-.579 1.584 1.584 0 01.58 2.161l-2.638 4.567a1.584 1.584 0 01-2.16.579zm5.48 3.164a1.584 1.584 0 01-.578-2.161l3.691-6.394a1.584 1.584 0 012.161-.579 1.584 1.584 0 01.58 2.161l-3.692 6.394a1.584 1.584 0 01-2.161.58zm5.48 3.164a1.584 1.584 0 01-.578-2.16l2.637-4.568a1.584 1.584 0 012.16-.579 1.584 1.584 0 01.58 2.161l-2.637 4.567a1.584 1.584 0 01-2.161.58zm5.481 3.164a1.584 1.584 0 01-.579-2.16l1.582-2.741a1.584 1.584 0 012.161-.579 1.584 1.584 0 01.58 2.161l-1.583 2.74a1.584 1.584 0 01-2.16.58zm25.681-7.566a1.584 1.584 0 01-2.161.579l-8.22-4.746a1.582 1.582 0 00-1.582 2.74l6.393 3.691a1.584 1.584 0 01.58 2.161 1.584 1.584 0 01-2.162.58l-6.394-3.692a1.582 1.582 0 10-1.582 2.74l3.654 2.11a1.584 1.584 0 01.58 2.16 1.584 1.584 0 01-2.162.58l-5.953-3.438a4.751 4.751 0 00-1.925-6.12 4.715 4.715 0 00-2.062-.624 4.75 4.75 0 00-2.364-4.366 4.716 4.716 0 00-2.062-.625 4.75 4.75 0 00-2.364-4.366 4.75 4.75 0 00-4.963.136 4.717 4.717 0 00-1.572-1.474 4.754 4.754 0 00-5.55.586L6.7 27.498l7.481-13.948 3.98 2.297-.045.026a4.716 4.716 0 00-2.211 2.882 4.715 4.715 0 00.474 3.601 4.716 4.716 0 002.882 2.212 4.716 4.716 0 003.601-.474l7.955-4.593 20.948 12.095a1.584 1.584 0 01.58 2.16 1.584 1.584 0 01-2.162.58l-6.393-3.692a1.582 1.582 0 00-1.582 2.74l8.22 4.747a1.584 1.584 0 01.58 2.16z" fill="#000"/></g><defs><clipPath id="clip0"><path fill="#fff" transform="translate(3 3)" d="M0 0h54v54H0z"/></clipPath></defs></svg>