<svg width="60" height="60" fill="none" xmlns="http://www.w3.org/2000/svg"><path d="M54.86 14.104H12.574l-.628-7.064A2.229 2.229 0 009.734 5H5.22A2.23 2.23 0 003 7.24a2.23 2.23 0 002.221 2.24h2.482l2.555 28.709c.18 2.069 1.29 4.314 3.198 5.84C10.014 48.463 13.16 55 18.76 55c4.647 0 7.925-4.676 6.331-9.104h12.156C35.655 50.32 38.926 55 43.578 55c3.713 0 6.734-3.047 6.734-6.792 0-3.746-3.02-6.793-6.734-6.793H18.774a4.124 4.124 0 01-3.792-2.522l35.495-2.105a2.226 2.226 0 002.025-1.693l4.512-18.208c.35-1.412-.71-2.784-2.154-2.784zM18.759 50.519a2.304 2.304 0 01-2.292-2.311 2.304 2.304 0 012.292-2.312 2.304 2.304 0 012.291 2.312 2.304 2.304 0 01-2.291 2.311zm24.82 0a2.304 2.304 0 01-2.293-2.311 2.304 2.304 0 012.292-2.312 2.304 2.304 0 012.292 2.312 2.304 2.304 0 01-2.292 2.311zm5.009-18.107L14.384 34.44l-1.41-15.856h39.04l-3.426 13.828z" fill="#000"/></svg>