<svg width="25" height="25" fill="none" xmlns="http://www.w3.org/2000/svg"><g clip-path="url(#clip0)"><path d="M15 0h-5C5.174 0 1.249 3.926 1.249 8.751v3.75a8.755 8.755 0 005 7.909v4.177c0 .362.454.552.712.294l3.628-3.628H15c4.826 0 8.751-3.926 8.751-8.751v-3.75c0-4.826-3.925-8.752-8.75-8.752z" fill="#665CAC"/><path d="M7.5 20.41a8.755 8.755 0 01-5.001-7.908v-3.75C2.499 3.925 6.424 0 11.249 0H10C5.175 0 1.25 3.926 1.25 8.751v3.75a8.755 8.755 0 005 7.909v4.177c0 .362.454.552.712.294l.538-.539V20.41z" fill="#523494"/><path d="M18.791 15.532l-.374-2.03a.417.417 0 00-.328-.332l-2.947-.59a.417.417 0 00-.376.114l-1.197 1.197c-2.017-.903-3.137-2.025-4.122-4.129L10.64 8.57a.417.417 0 00.114-.376l-.589-2.947a.417.417 0 00-.333-.328l-2.03-.375a.418.418 0 00-.167.004 2.908 2.908 0 00-1.415.78c-.673.675-.931 1.658-.744 2.845.313 1.992 1.29 4.765 3.09 6.573l.025.025c1.807 1.8 4.58 2.776 6.572 3.09.251.039.493.058.725.058.864 0 1.588-.272 2.12-.804a2.91 2.91 0 00.78-1.414.419.419 0 00.003-.168z" fill="#fff"/><path d="M10.233 8.977l.407-.408-.407.407zm4.533 3.717l-.412.411.412-.411z" fill="#E5E5E5"/><path d="M16.674 17.132a4.73 4.73 0 01-.725-.059c-1.993-.313-4.766-1.29-6.572-3.09l-.025-.024c-1.801-1.808-2.777-4.58-3.09-6.573-.151-.959-.012-1.785.402-2.422a2.918 2.918 0 00-.444.364c-.674.674-.931 1.657-.745 2.844.314 1.992 1.29 4.765 3.091 6.573l.025.025c1.807 1.8 4.58 2.776 6.572 3.09.251.039.493.058.725.058.864 0 1.588-.272 2.119-.804.136-.136.258-.285.364-.444-.47.306-1.044.462-1.697.462z" fill="#E5E5E5"/><path d="M13.333 7.084a.417.417 0 000 .834c.92 0 1.667.747 1.667 1.667 0 .227.19.416.417.416a.42.42 0 00.417-.416c0-1.38-1.122-2.5-2.5-2.5z" fill="#fff"/><path d="M13.333 5.417c-.154 0-.31.009-.462.026a.417.417 0 10.091.828 3.338 3.338 0 013.684 3.684.42.42 0 00.37.46.42.42 0 00.46-.368 4.172 4.172 0 00-4.142-4.63z" fill="#fff"/><path d="M13.334 3.75c-.15 0-.3.006-.448.017a.417.417 0 00.063.832 5.006 5.006 0 015.252 6.14.42.42 0 00.295.498.42.42 0 00.516-.306 5.84 5.84 0 00-5.678-7.18z" fill="#fff"/></g><defs><clipPath id="clip0"><path fill="#fff" d="M0 0h25v25H0z"/></clipPath></defs></svg>