<svg width="288" height="77" viewBox="0 0 288 77" fill="none" xmlns="http://www.w3.org/2000/svg">
<path d="M148.524 35.9577C149.724 36.5472 150.667 37.3699 151.352 38.426C152.038 39.4821 152.381 40.6855 152.381 42.0363C152.381 44.0993 151.658 45.8308 150.214 47.2307C148.769 48.6306 147.006 49.3306 144.925 49.3306H133.833V23.5427H144.117C146.149 23.5427 147.851 24.2181 149.222 25.5689C150.618 26.9197 151.316 28.5898 151.316 30.5791C151.316 32.8877 150.385 34.6806 148.524 35.9577ZM144.117 26.7478H137.248V34.6315H144.117C145.194 34.6315 146.1 34.2508 146.835 33.4895C147.569 32.7281 147.936 31.7948 147.936 30.6896C147.936 29.609 147.557 28.688 146.798 27.9267C146.063 27.1407 145.17 26.7478 144.117 26.7478ZM137.248 46.1255H144.925C146.076 46.1255 147.043 45.7203 147.826 44.9098C148.61 44.0993 149.002 43.1047 149.002 41.9258C149.002 40.7715 148.598 39.7891 147.79 38.9786C147.03 38.1681 146.076 37.7629 144.925 37.7629H137.248V46.1255Z" fill="white"/>
<path d="M167.191 23.5427V46.0887H178.283V49.3306H163.775V23.5427H167.191Z" fill="white"/>
<path d="M210.341 49.3306H206.705L204.611 43.5467H193.041L190.948 49.3306H187.312L196.898 23.5427H200.755L210.341 49.3306ZM198.808 27.6319L194.217 40.3417H203.436L198.808 27.6319Z" fill="white"/>
<path d="M227.698 36.0683L239.415 49.3306H235.228L224.136 36.9524V49.3306H220.72V23.5427H224.136V35.1841L234.86 23.5427H239.048L227.698 36.0683Z" fill="white"/>
<path d="M249.802 49.3306V23.5427H253.217V49.3306H249.802Z" fill="white"/>
<path d="M263.985 23.5427H282.533V26.7846H274.93V49.3306H271.551V26.7846H263.985V23.5427Z" fill="white"/>
<path d="M197.016 2.76803V0.116079H197.847V6.36647H197.016V3.55379H193.944V6.36647H193.103V0.116079H193.944V2.76803H197.016Z" fill="white"/>
<path d="M200.674 3.24127C200.674 2.33645 200.99 1.57153 201.622 0.946487C202.255 0.315496 203.029 0 203.944 0C204.86 0 205.634 0.315496 206.267 0.946487C206.905 1.57153 207.224 2.33645 207.224 3.24127C207.224 4.14014 206.905 4.90507 206.267 5.53606C205.634 6.16705 204.86 6.48255 203.944 6.48255C203.029 6.48255 202.255 6.16705 201.622 5.53606C200.99 4.89911 200.674 4.13419 200.674 3.24127ZM206.384 3.24127C206.384 2.55075 206.149 1.97334 205.679 1.50902C205.221 1.03876 204.643 0.803622 203.944 0.803622C203.252 0.803622 202.67 1.03876 202.201 1.50902C201.737 1.97929 201.505 2.55671 201.505 3.24127C201.505 3.91989 201.737 4.4973 202.201 4.97352C202.67 5.43784 203.252 5.67 203.944 5.67C204.643 5.67 205.221 5.43784 205.679 4.97352C206.149 4.4973 206.384 3.91989 206.384 3.24127Z" fill="white"/>
<path d="M215.011 0.116079H215.96V6.36647H215.129V1.48223L213.06 4.88423H212.951L210.882 1.49116V6.36647H210.042V0.116079H210.99L213.005 3.41986L215.011 0.116079Z" fill="white"/>
<path d="M219.96 3.59844V5.5807H222.897V6.36647H219.12V0.116079H222.851V0.901842H219.96V2.8216H222.625V3.59844H219.96Z" fill="white"/>
<path d="M112.5 2.21355H188.847V3.16222H112.5V2.21355Z" fill="white"/>
<path d="M227.153 2.21355H288V3.16222H227.153V2.21355Z" fill="white"/>
<path d="M112.5 73.6797H188.847V74.6283H112.5V73.6797Z" fill="white"/>
<path d="M227.153 73.6797H288V74.6283H227.153V73.6797Z" fill="white"/>
<path d="M196.256 70.9223L197.984 70.323H198.735V76.8783H197.871V71.2594L196.472 71.6715L196.256 70.9223Z" fill="white"/>
<path d="M206.139 72.4019C206.139 72.9139 206.004 73.354 205.735 73.7224H205.744L203.622 76.8783H202.636L204.195 74.5839C204.007 74.5964 203.901 74.6026 203.876 74.6026C203.212 74.6026 202.667 74.3997 202.242 73.9939C201.822 73.5819 201.613 73.0512 201.613 72.4019C201.613 71.7464 201.822 71.2189 202.242 70.8193C202.661 70.4072 203.206 70.2012 203.876 70.2012C204.533 70.2012 205.074 70.4072 205.5 70.8193C205.926 71.2251 206.139 71.7527 206.139 72.4019ZM203.876 71.0347C203.462 71.0347 203.124 71.1596 202.861 71.4093C202.605 71.659 202.476 71.9899 202.476 72.4019C202.476 72.814 202.605 73.148 202.861 73.404C203.124 73.6537 203.462 73.7785 203.876 73.7785C204.289 73.7785 204.624 73.6537 204.88 73.404C205.143 73.148 205.275 72.814 205.275 72.4019C205.275 71.9899 205.146 71.659 204.89 71.4093C204.633 71.1596 204.295 71.0347 203.876 71.0347Z" fill="white"/>
<path d="M210.439 72.5892C211.097 72.5892 211.638 72.7952 212.064 73.2073C212.49 73.6131 212.702 74.1406 212.702 74.7899C212.702 75.4392 212.49 75.9699 212.064 76.3819C211.638 76.794 211.097 77 210.439 77C209.77 77 209.225 76.794 208.806 76.3819C208.386 75.9699 208.176 75.4392 208.176 74.7899C208.176 74.278 208.308 73.841 208.571 73.4789L210.684 70.323H211.679L210.13 72.608C210.317 72.5955 210.421 72.5892 210.439 72.5892ZM210.439 73.4227C210.02 73.4227 209.682 73.5475 209.425 73.7973C209.169 74.047 209.04 74.3779 209.04 74.7899C209.04 75.202 209.169 75.536 209.425 75.792C209.688 76.0417 210.026 76.1665 210.439 76.1665C210.853 76.1665 211.187 76.0417 211.444 75.792C211.707 75.536 211.838 75.202 211.838 74.7899C211.838 74.3779 211.707 74.047 211.444 73.7973C211.187 73.5475 210.853 73.4227 210.439 73.4227Z" fill="white"/>
<path d="M219.147 71.0909L217.72 73.0106C218.233 73.1043 218.646 73.3228 218.959 73.6662C219.272 74.0095 219.429 74.4341 219.429 74.9398C219.429 75.5828 219.209 76.0854 218.771 76.4475C218.327 76.8158 217.795 77 217.175 77C216.662 77 216.214 76.8845 215.832 76.6535C215.45 76.4225 215.178 76.0947 215.015 75.6702L215.748 75.2394C215.942 75.845 216.418 76.1478 217.175 76.1478C217.588 76.1478 217.92 76.0417 218.17 75.8294C218.427 75.6109 218.555 75.3144 218.555 74.9398C218.555 74.5652 218.427 74.2686 218.17 74.0501C217.92 73.8316 217.588 73.7224 217.175 73.7224H216.95L216.602 73.1886L218.123 71.1377H215.203V70.323H219.147V71.0909Z" fill="white"/>
<mask id="mask0" mask-type="alpha" maskUnits="userSpaceOnUse" x="0" y="2" width="119" height="73">
<rect y="2" width="118.625" height="73" fill="#C4C4C4"/>
</mask>
<g mask="url(#mask0)">
<rect x="-18.25" y="-10.7751" width="177.025" height="129.575" fill="#EC174F"/>
</g>
<path d="M33.5 14L41.5 18.5L33.5 23V14Z" fill="white"/>
<path d="M55 26L50.5 34L46 26H55Z" fill="white"/>
<path d="M77 26L72.5 34L68 26H77Z" fill="white"/>
<path d="M71 36L66.5 44L62 36H71Z" fill="white"/>
<path d="M57 45L61.5 37L66 45H57Z" fill="white"/>
<path d="M62 35L66.5 27L71 35H62Z" fill="white"/>
<path d="M52 35L56.5 27L61 35H52Z" fill="white"/>
<path d="M61 36L56.5 44L52 36H61Z" fill="white"/>
<path d="M33.5 25L41.5 29.5L33.5 34V25Z" fill="white"/>
<path d="M33.5 37L41.5 41.5L33.5 46V37Z" fill="white"/>
<path d="M41.5 40L33.5 35.5L41.5 31L41.5 40Z" fill="white"/>
<path d="M83 14L91 18.5L83 23V14Z" fill="white"/>
<path d="M83 25L91 29.5L83 34V25Z" fill="white"/>
<path d="M83 37L91 41.5L83 46V37Z" fill="white"/>
<path d="M91 40L83 35.5L91 31V40Z" fill="white"/>
<path d="M32.3301 59.9639C32.3301 60.3838 32.2559 60.752 32.1074 61.0684C31.959 61.3848 31.7461 61.6289 31.4688 61.8008C31.1934 61.9727 30.877 62.0586 30.5195 62.0586C30.166 62.0586 29.8506 61.9736 29.5732 61.8037C29.2959 61.6338 29.0811 61.3916 28.9287 61.0771C28.7764 60.7607 28.6992 60.3975 28.6973 59.9873V59.7764C28.6973 59.3564 28.7725 58.9873 28.9229 58.6689C29.0752 58.3486 29.2891 58.1035 29.5645 57.9336C29.8418 57.7617 30.1582 57.6758 30.5137 57.6758C30.8691 57.6758 31.1846 57.7617 31.46 57.9336C31.7373 58.1035 31.9512 58.3486 32.1016 58.6689C32.2539 58.9873 32.3301 59.3555 32.3301 59.7734V59.9639ZM31.4395 59.7705C31.4395 59.3232 31.3594 58.9834 31.1992 58.751C31.0391 58.5186 30.8105 58.4023 30.5137 58.4023C30.2188 58.4023 29.9912 58.5176 29.8311 58.748C29.6709 58.9766 29.5898 59.3125 29.5879 59.7559V59.9639C29.5879 60.3994 29.668 60.7373 29.8281 60.9775C29.9883 61.2178 30.2188 61.3379 30.5195 61.3379C30.8145 61.3379 31.041 61.2227 31.1992 60.9922C31.3574 60.7598 31.4375 60.4219 31.4395 59.9785V59.7705Z" fill="white"/>
<path d="M36.4404 62H35.5615V60.1719H33.8477V62H32.9688V57.7344H33.8477V59.4629H35.5615V57.7344H36.4404V62Z" fill="white"/>
<path d="M40.7324 57.7344V62H39.8506V58.4463H38.7139L38.6436 59.9521C38.6143 60.46 38.5498 60.8604 38.4502 61.1533C38.3506 61.4443 38.2051 61.6582 38.0137 61.7949C37.8223 61.9297 37.5605 61.998 37.2285 62H37V61.2939L37.1465 61.2793C37.3672 61.25 37.5244 61.123 37.6182 60.8984C37.7139 60.6719 37.7744 60.2695 37.7998 59.6914L37.873 57.7344H40.7324Z" fill="white"/>
<path d="M43.9609 61.1211H42.4199L42.127 62H41.1924L42.7803 57.7344H43.5947L45.1914 62H44.2568L43.9609 61.1211ZM42.6572 60.4092H43.7236L43.1875 58.8125L42.6572 60.4092Z" fill="white"/>
<path d="M48.1475 57.7344H49.0293V62H48.1475V59.167L46.4395 62H45.5605V57.7344H46.4395V60.5732L48.1475 57.7344ZM48.3174 56.6123C48.3174 56.8721 48.2236 57.082 48.0361 57.2422C47.8506 57.4023 47.6064 57.4824 47.3037 57.4824C47.001 57.4824 46.7559 57.4033 46.5684 57.2451C46.3828 57.0869 46.29 56.876 46.29 56.6123H46.8906C46.8906 56.7354 46.9268 56.8311 46.999 56.8994C47.0732 56.9658 47.1748 56.999 47.3037 56.999C47.4307 56.999 47.5303 56.9658 47.6025 56.8994C47.6748 56.8311 47.7109 56.7354 47.7109 56.6123H48.3174Z" fill="white"/>
<path d="M53.2627 62H52.3838V60.1719H50.6699V62H49.791V57.7344H50.6699V59.4629H52.3838V57.7344H53.2627V62Z" fill="white"/>
<path d="M55.624 60.5146H53.9746V59.832H55.624V60.5146Z" fill="white"/>
<path d="M57.751 60.2568H57.2441V62H56.3652V57.7344H57.2441V59.4424H57.6455L58.6885 57.7344H59.7607L58.4453 59.7529L59.8984 62H58.8496L57.751 60.2568Z" fill="white"/>
<path d="M62.7959 57.7344H63.6777V62H62.7959V59.167L61.0879 62H60.209V57.7344H61.0879V60.5732L62.7959 57.7344Z" fill="white"/>
<path d="M67.9111 62H67.0322V60.1719H65.3184V62H64.4395V57.7344H65.3184V59.4629H67.0322V57.7344H67.9111V62Z" fill="white"/>
<path d="M72.1855 59.9639C72.1855 60.3838 72.1113 60.752 71.9629 61.0684C71.8145 61.3848 71.6016 61.6289 71.3242 61.8008C71.0488 61.9727 70.7324 62.0586 70.375 62.0586C70.0215 62.0586 69.7061 61.9736 69.4287 61.8037C69.1514 61.6338 68.9365 61.3916 68.7842 61.0771C68.6318 60.7607 68.5547 60.3975 68.5527 59.9873V59.7764C68.5527 59.3564 68.6279 58.9873 68.7783 58.6689C68.9307 58.3486 69.1445 58.1035 69.4199 57.9336C69.6973 57.7617 70.0137 57.6758 70.3691 57.6758C70.7246 57.6758 71.04 57.7617 71.3154 57.9336C71.5928 58.1035 71.8066 58.3486 71.957 58.6689C72.1094 58.9873 72.1855 59.3555 72.1855 59.7734V59.9639ZM71.2949 59.7705C71.2949 59.3232 71.2148 58.9834 71.0547 58.751C70.8945 58.5186 70.666 58.4023 70.3691 58.4023C70.0742 58.4023 69.8467 58.5176 69.6865 58.748C69.5264 58.9766 69.4453 59.3125 69.4434 59.7559V59.9639C69.4434 60.3994 69.5234 60.7373 69.6836 60.9775C69.8438 61.2178 70.0742 61.3379 70.375 61.3379C70.6699 61.3379 70.8965 61.2227 71.0547 60.9922C71.2129 60.7598 71.293 60.4219 71.2949 59.9785V59.7705Z" fill="white"/>
<path d="M75.7832 58.4463H74.4766V62H73.5977V58.4463H72.3086V57.7344H75.7832V58.4463Z" fill="white"/>
<path d="M78.8535 60.1514H77.166V61.2939H79.1465V62H76.2871V57.7344H79.1406V58.4463H77.166V59.4629H78.8535V60.1514Z" fill="white"/>
<path d="M82.0703 61.1211H80.5293L80.2363 62H79.3018L80.8896 57.7344H81.7041L83.3008 62H82.3662L82.0703 61.1211ZM80.7666 60.4092H81.833L81.2969 58.8125L80.7666 60.4092Z" fill="white"/>
<path d="M86.5586 58.4463H85.252V62H84.373V58.4463H83.084V57.7344H86.5586V58.4463Z" fill="white"/>
<path d="M87.9414 60.4971V62H87.0625V57.7344H88.7266C89.0469 57.7344 89.3281 57.793 89.5703 57.9102C89.8145 58.0273 90.002 58.1943 90.1328 58.4111C90.2637 58.626 90.3291 58.8711 90.3291 59.1465C90.3291 59.5645 90.1855 59.8945 89.8984 60.1367C89.6133 60.377 89.2178 60.4971 88.7119 60.4971H87.9414ZM87.9414 59.7852H88.7266C88.959 59.7852 89.1357 59.7305 89.2568 59.6211C89.3799 59.5117 89.4414 59.3555 89.4414 59.1523C89.4414 58.9434 89.3799 58.7744 89.2568 58.6455C89.1338 58.5166 88.9639 58.4502 88.7471 58.4463H87.9414V59.7852Z" fill="white"/>
</svg>
